<?xml version="1.0" encoding="UTF-8" standalone="no"?>
<svg
   xmlns:dc="http://purl.org/dc/elements/1.1/"
   xmlns:cc="http://creativecommons.org/ns#"
   xmlns:rdf="http://www.w3.org/1999/02/22-rdf-syntax-ns#"
   xmlns:svg="http://www.w3.org/2000/svg"
   xmlns="http://www.w3.org/2000/svg"
   xmlns:sodipodi="http://sodipodi.sourceforge.net/DTD/sodipodi-0.dtd"
   xmlns:inkscape="http://www.inkscape.org/namespaces/inkscape"
   xml:space="preserve"
   version="1.1"
   style="clip-rule:evenodd;fill-rule:evenodd;image-rendering:optimizeQuality;shape-rendering:geometricPrecision;text-rendering:geometricPrecision"
   viewBox="0 0 278 331.25"
   x="0px"
   y="0px"
   id="svg28"
   sodipodi:docname="polvora.svg"
   width="278"
   height="331.25"
   inkscape:version="0.92.2 (5c3e80d, 2017-08-06)"><metadata
     id="metadata32"><rdf:RDF><cc:Work
         rdf:about=""><dc:format>image/svg+xml</dc:format><dc:type
           rdf:resource="http://purl.org/dc/dcmitype/StillImage" /><dc:title></dc:title></cc:Work></rdf:RDF></metadata><sodipodi:namedview
     pagecolor="#ffffff"
     bordercolor="#666666"
     borderopacity="1"
     objecttolerance="10"
     gridtolerance="10"
     guidetolerance="10"
     inkscape:pageopacity="0"
     inkscape:pageshadow="2"
     inkscape:window-width="1920"
     inkscape:window-height="1145"
     id="namedview30"
     showgrid="false"
     showborder="false"
     inkscape:zoom="1.6036247"
     inkscape:cx="223.40266"
     inkscape:cy="144.35704"
     inkscape:window-x="0"
     inkscape:window-y="27"
     inkscape:window-maximized="1"
     inkscape:current-layer="svg28" /><defs
     id="defs4"><style
       type="text/css"
       id="style2">
   
    .str1 {stroke:black;stroke-width:9.99606}
    .str0 {stroke:black;stroke-width:9.99606;stroke-linecap:round;stroke-linejoin:round}
    .fil0 {fill:none}
   
  </style></defs><g
     id="g22"
     transform="translate(-28,1)"
     inkscape:export-filename="/home/steveno/Projects/vala/polvora/data/hicolor/512x512/apps/polvora.png"
     inkscape:export-xdpi="157.54047"
     inkscape:export-ydpi="157.54047"><g
       id="g12"><path
         class="fil0 str0"
         d="m 96,16 c 47,0 94,0 141,0 8,7 15,15 21,23 H 75 C 81,31 88,23 96,16 Z m 181,55 c 29,64 20,138 -3,191 H 59 C 36,209 27,135 57,71 Z m -20,223 c -6,10 -13,18 -20,24 -47,0 -94,0 -141,0 -7,-6 -13,-14 -20,-24 z"
         id="path6"
         inkscape:connector-curvature="0"
         style="fill:none;stroke:#000000;stroke-width:9.99606037;stroke-linecap:round;stroke-linejoin:round" /><path
         class="fil0 str0"
         d="m 119,16 c 32,0 64,0 96,0 5,7 10,15 14,23 H 105 c 4,-8 8,-16 14,-23 z m 122,55 c 21,64 14,138 -1,191 H 94 C 78,209 72,135 92,71 Z m -13,223 c -4,10 -9,18 -13,24 -32,0 -64,0 -96,0 -5,-6 -10,-14 -14,-24 z"
         id="path8"
         inkscape:connector-curvature="0"
         style="fill:none;stroke:#000000;stroke-width:9.99606037;stroke-linecap:round;stroke-linejoin:round" /><path
         class="fil0 str0"
         d="m 145,16 c 14,0 29,0 43,0 3,7 5,15 7,23 h -56 c 2,-8 4,-16 6,-23 z m 55,55 c 9,64 7,138 -1,191 h -65 c -1,-7 -2,-16 -3,-24 9,-2 16,-9 16,-19 0,-10 -8,-18 -19,-18 -2,-42 -1,-88 5,-130 z m -6,223 c -2,10 -4,18 -6,24 -14,0 -29,0 -43,0 -2,-6 -4,-14 -6,-24 z"
         id="path10"
         inkscape:connector-curvature="0"
         style="fill:none;stroke:#000000;stroke-width:9.99606037;stroke-linecap:round;stroke-linejoin:round" /></g><g
       id="g18"><path
         class="fil0 str0"
         d="m 52,262 c 76,0 153,0 230,0 l -18,32 c -65,0 -130,0 -195,0 z"
         id="path14"
         inkscape:connector-curvature="0"
         style="fill:none;stroke:#000000;stroke-width:9.99606037;stroke-linecap:round;stroke-linejoin:round" /><path
         class="fil0 str0"
         d="m 52,71 c 76,0 153,0 230,0 L 264,39 c -65,0 -130,0 -195,0 z"
         id="path16"
         inkscape:connector-curvature="0"
         style="fill:none;stroke:#000000;stroke-width:9.99606037;stroke-linecap:round;stroke-linejoin:round" /></g><circle
       class="fil0 str1"
       cx="128"
       cy="219"
       r="18"
       id="circle20"
       style="fill:none;stroke:#000000;stroke-width:9.99606037" /></g><path
     style="fill:#550000;stroke-width:0.62358731"
     d="m 38.69611,279.37495 c -2.915271,-5.51292 -5.39403,-10.2806 -5.508355,-10.59485 -0.125389,-0.34466 41.850034,-0.57135 105.793315,-0.57135 h 106.00118 l -5.94704,10.60098 -5.94703,10.60098 -94.54579,-0.006 -94.545788,-0.006 z"
     id="path101"
     inkscape:connector-curvature="0"
     inkscape:export-filename="/home/steveno/Projects/vala/polvora/data/hicolor/512x512/apps/polvora.png"
     inkscape:export-xdpi="157.54047"
     inkscape:export-ydpi="157.54047" /><path
     style="fill:#550000;stroke-width:0.62358731"
     d="m 33.187755,66.218693 c 0.114325,-0.314248 2.593084,-5.081926 5.508355,-10.59484 l 5.300492,-10.023482 94.545788,-0.0061 94.54579,-0.0061 5.94703,10.600984 5.94704,10.600984 H 138.98107 c -63.943281,0 -105.918704,-0.226697 -105.793315,-0.57136 z"
     id="path103"
     inkscape:connector-curvature="0"
     inkscape:export-filename="/home/steveno/Projects/vala/polvora/data/hicolor/512x512/apps/polvora.png"
     inkscape:export-xdpi="157.54047"
     inkscape:export-ydpi="157.54047" /></svg>